<svg version="1.1" id="Capa_1" xmlns="http://www.w3.org/2000/svg" xmlns:xlink="http://www.w3.org/1999/xlink" x="0px" y="0px" viewBox="0 0 512 512" style="enable-background:new 0 0 512 512;" xml:space="preserve"><circle style="fill:#AFE5F9;" cx="256" cy="256" r="246.154"></circle><path style="fill:#BC9C80;" d="M351.874,29.216c-20.713,19.691-46.955,49.965-36.797,69.245 c16.082,30.523,39.385,55.466,19.692,98.462c-19.692,42.995,0,89.6,59.077,78.769c59.077-10.831,53.497,14.112,59.077,19.692 c3.542,3.542,16.48,18.321,41.571,21.762c4.998-19.552,7.659-40.038,7.659-61.147C502.154,154.063,440.19,66.598,351.874,29.216z"></path><g><path style="fill:#76B888;" d="M104.669,112.565c0,0,23.262-29.33,60.966-12.689s60.47-8.451,78.235,9.161 c17.764,17.612-22.526,76.67-11.451,97.793c11.075,21.124,35.18,63.6,10.399,80.525c-24.782,16.925-76.746-21.873-100.083,8.108 c-23.337,29.982-95.847-28.074-69.075-87.394S82.324,134.072,104.669,112.565z"></path><path style="fill:#76B888;" d="M256,502.154c55.072,0,105.915-18.089,146.924-48.644c-11.399-18.423-30.326-43.099-48.463-39.971 c-28.554,4.923-39.385-29.211-59.077-39.385c-19.692-10.174-59.077,39.385-78.769,39.385s-23.303-25.928-59.077-19.692 c-23.172,4.039-41.108,35.888-50.871,57.83C148.086,483.334,199.842,502.154,256,502.154z"></path></g><path d="M125.358,313.415c10.109,0,18.995-4.002,25.144-11.902c8.588-11.031,23.16-8.88,46.141-4.023 c18.319,3.873,37.262,7.875,51.726-2.003c9.618-6.568,19.648-20.064,12.82-47.062c-3.98-15.733-12.324-31.53-18.417-43.066 c-0.569-1.077-1.116-2.112-1.633-3.099c-3.227-6.154,3.008-24.921,7.561-38.624c7.823-23.549,15.912-47.9,2.101-61.592 c-12.198-12.093-26.518-9.827-39.152-7.828c-12.467,1.975-25.359,4.012-42.039-3.348c-34.821-15.369-62.175,2.83-72.225,15.045 c-13.29,13.029-14.704,25.112-16.34,39.077c-1.604,13.703-3.601,30.756-16.36,59.027c-8.787,19.468-9.003,40.39-0.627,60.505 c6.99,16.785,19.578,31.585,34.538,40.608C107.787,310.674,116.991,313.416,125.358,313.415z M82.634,212.12 c13.881-30.755,16.256-50.203,17.922-64.427h37.29c5.438,0,9.846-4.409,9.846-9.846c0-5.437-4.408-9.846-9.846-9.846h-32.883 c1.457-2.775,3.498-5.419,6.533-8.341c0.317-0.305,0.613-0.632,0.886-0.976c0.044-0.056,4.824-5.801,13.024-9.892 c5.582-2.785,11.404-4.177,17.424-4.177c6.087,0,12.378,1.424,18.828,4.27c21.985,9.703,39.952,6.861,53.069,4.782 c12.663-2.005,17.515-2.291,22.209,2.362c5.136,5.091-2.123,26.94-6.926,41.398c-6.904,20.781-13.424,40.411-6.312,53.976 c0.527,1.005,1.083,2.058,1.662,3.153c9.876,18.697,28.259,53.499,11.904,64.669c-7.517,5.134-22.276,2.014-36.548-1.002 c-21.822-4.614-48.983-10.351-65.753,11.193c-7.387,9.491-23.119,0.711-26.198-1.148C89.019,276.36,67.857,244.861,82.634,212.12z"></path><path d="M267.858,511.722c0.641-0.03,1.281-0.061,1.921-0.095c1.418-0.075,2.834-0.161,4.248-0.259 c0.546-0.037,1.094-0.072,1.64-0.113c1.855-0.14,3.707-0.296,5.554-0.476c0.081-0.008,0.162-0.014,0.243-0.022 c2.032-0.199,4.059-0.424,6.081-0.671c0.245-0.031,0.489-0.065,0.734-0.095c1.71-0.214,3.417-0.445,5.119-0.692 c0.456-0.066,0.911-0.136,1.366-0.205c1.531-0.231,3.058-0.476,4.582-0.734c0.46-0.078,0.92-0.155,1.378-0.235 c1.666-0.291,3.327-0.601,4.984-0.925c0.268-0.052,0.537-0.1,0.803-0.154c1.963-0.391,3.921-0.802,5.871-1.24 c0.183-0.041,0.364-0.087,0.547-0.128c1.662-0.376,3.32-0.769,4.973-1.179c0.66-0.163,1.316-0.334,1.974-0.502 c1.157-0.296,2.312-0.599,3.464-0.912c0.816-0.222,1.632-0.446,2.446-0.675c0.946-0.267,1.89-0.543,2.834-0.82 c0.946-0.279,1.892-0.555,2.835-0.845c0.594-0.182,1.184-0.375,1.775-0.562c38.743-12.204,74.244-33.621,103.788-63.165 c41.564-41.564,67.056-94.906,73.401-152.498c0.027-0.241,0.054-0.482,0.08-0.725c0.131-1.223,0.259-2.446,0.373-3.672 c0.127-1.356,0.243-2.714,0.349-4.071c0.065-0.841,0.121-1.685,0.177-2.527c0.078-1.139,0.147-2.279,0.209-3.42 c0.033-0.607,0.071-1.212,0.099-1.819c0.083-1.741,0.144-3.484,0.191-5.227c0.013-0.482,0.024-0.963,0.033-1.444 c0.04-1.871,0.068-3.743,0.068-5.616c0-1.907-0.028-3.809-0.07-5.709c-0.014-0.647-0.035-1.293-0.054-1.939 c-0.036-1.244-0.082-2.486-0.136-3.726c-0.033-0.783-0.068-1.566-0.109-2.346c-0.057-1.079-0.127-2.155-0.197-3.232 c-0.129-1.99-0.283-3.976-0.457-5.956c-0.034-0.387-0.063-0.774-0.099-1.16c-0.131-1.412-0.279-2.82-0.433-4.227 c-0.025-0.224-0.049-0.449-0.074-0.672c-3.934-35.152-15.008-68.707-32.52-98.961c-0.536-0.929-1.075-1.858-1.622-2.781 c-0.258-0.432-0.517-0.864-0.777-1.297c-19.272-32.06-45.533-59.816-77.277-80.976c-0.106-0.071-0.212-0.144-0.317-0.215 c-1.169-0.777-2.348-1.542-3.532-2.301C353.438,14.143,305.809,0,256,0C187.619,0,123.333,26.629,74.98,74.98S0,187.62,0,256 s26.629,132.667,74.98,181.02c27.004,27.004,58.981,47.224,93.863,59.822c0.077,0.029,0.154,0.058,0.23,0.086 c0.83,0.298,1.665,0.583,2.498,0.873c1.055,0.368,2.109,0.736,3.169,1.089c0.662,0.221,1.325,0.434,1.989,0.65 c1.288,0.418,2.58,0.828,3.874,1.226c0.508,0.156,1.015,0.311,1.524,0.464c1.584,0.476,3.173,0.935,4.768,1.38 c0.246,0.069,0.491,0.14,0.737,0.208c5.919,1.633,11.903,3.047,17.947,4.249c0.079,0.016,0.158,0.031,0.236,0.046 c1.915,0.378,3.836,0.734,5.762,1.069c0.16,0.028,0.322,0.056,0.482,0.084c1.96,0.337,3.927,0.654,5.899,0.945 c0.04,0.006,0.082,0.013,0.122,0.019c4.107,0.606,8.236,1.115,12.387,1.521c0.159,0.016,0.319,0.029,0.478,0.043 c1.778,0.171,3.56,0.323,5.346,0.458c0.51,0.038,1.021,0.072,1.531,0.108c1.456,0.101,2.914,0.19,4.375,0.267 c0.611,0.033,1.224,0.064,1.836,0.093c1.431,0.065,2.863,0.115,4.298,0.157c0.575,0.017,1.149,0.039,1.725,0.052 c1.977,0.044,3.957,0.072,5.942,0.072c1.968,0,3.932-0.028,5.893-0.072c0.59-0.014,1.179-0.035,1.768-0.052 C265.061,511.836,266.461,511.785,267.858,511.722z M267.635,492.019c-1.576,0.077-3.159,0.135-4.743,0.181 c-0.45,0.013-0.9,0.028-1.35,0.037c-1.843,0.042-3.689,0.07-5.542,0.07c-1.867,0-3.727-0.028-5.584-0.071 c-0.45-0.01-0.898-0.026-1.347-0.038c-1.568-0.045-3.133-0.102-4.693-0.179c-0.278-0.013-0.554-0.026-0.832-0.039 c-46.25-2.413-89.022-18.187-124.52-43.526c12.855-26.429,27.31-42.66,40.206-44.907c17.078-2.975,24.097,2.547,32.225,8.944 c6.487,5.106,13.84,10.894,25.16,10.894c11.912,0,24.78-9.829,39.68-21.211c7.939-6.064,16.148-12.334,23.257-16.145 c6.283-3.368,9.962-3.828,11.313-3.127c5.513,2.849,10.801,8.926,16.401,15.362c10.049,11.55,22.289,25.621,41.58,25.62 c2.324,0,4.752-0.204,7.288-0.641c8.109-1.401,20.547,9.038,33.338,27.653c-34.813,23.916-76.317,38.766-121.085,41.089 C268.136,491.997,267.885,492.007,267.635,492.019z M331.839,108.144c-2.713-4.653-5.518-9.463-8.051-14.272 c-3.923-7.446,2.167-25.137,30.132-52.917c71.015,32.465,123.268,99.096,135.6,178.745c0.032,0.21,0.066,0.419,0.097,0.63 c0.552,3.631,1.018,7.29,1.402,10.973c0.046,0.443,0.09,0.887,0.133,1.33c0.145,1.466,0.276,2.936,0.393,4.41 c0.03,0.374,0.064,0.747,0.092,1.121c0.133,1.775,0.246,3.555,0.34,5.342c0.022,0.409,0.036,0.819,0.056,1.228 c0.067,1.431,0.122,2.863,0.164,4.3c0.015,0.51,0.031,1.02,0.041,1.531c0.041,1.807,0.069,3.617,0.069,5.434 c0,2.062-0.028,4.123-0.081,6.181c-0.016,0.611-0.049,1.217-0.07,1.826c-0.048,1.444-0.095,2.888-0.17,4.33 c-0.041,0.79-0.101,1.574-0.15,2.362c-0.077,1.247-0.149,2.494-0.245,3.739c-0.075,0.967-0.171,1.929-0.258,2.893 c-0.094,1.047-0.181,2.094-0.288,3.14c-0.12,1.164-0.262,2.321-0.399,3.48c-0.096,0.821-0.186,1.643-0.291,2.464 c-0.177,1.375-0.376,2.743-0.577,4.11c-0.085,0.579-0.163,1.16-0.252,1.738c-0.246,1.593-0.513,3.179-0.791,4.761 c-0.057,0.326-0.11,0.652-0.168,0.978c-0.325,1.807-0.671,3.607-1.037,5.399c-0.016,0.076-0.031,0.153-0.045,0.228 c-0.132,0.641-0.281,1.276-0.418,1.915c-14.623-4.223-22.875-12.704-26.316-16.24c-0.125-0.129-0.245-0.252-0.358-0.368 c-0.207-0.473-0.508-1.282-0.74-1.908c-6.047-16.244-18.421-30.034-67.58-21.021c-21.271,3.899-37.995-0.39-47.09-12.077 c-9.898-12.719-10.381-32.992-1.259-52.907C362.318,160.419,346.126,132.647,331.839,108.144z M19.692,256 C19.692,125.699,125.7,19.692,256,19.692c27.386,0,53.691,4.699,78.172,13.305c-27.607,29.124-36.972,52.656-27.807,70.053 c2.73,5.183,5.644,10.18,8.462,15.011c14.153,24.274,25.332,43.447,10.99,74.761c-12.191,26.616-10.803,54.666,3.622,73.202 c13.828,17.767,37.332,24.642,66.182,19.352c23.263-4.265,34.039-2.364,38.984-0.017c3.951,1.874,5.027,4.341,6.591,8.539 c1.024,2.75,2.184,5.867,4.764,8.447c0.193,0.193,0.418,0.425,0.675,0.689c4.145,4.261,15.529,15.95,35.503,21.573 c-13.812,45.437-40.967,85.117-76.889,114.459c-18.121-26.263-35.737-38.114-52.461-35.231 c-12.058,2.079-19.509-5.674-30.667-18.498c-6.567-7.549-13.359-15.355-22.218-19.931c-16.651-8.608-36.432,6.505-55.562,21.117 c-9.486,7.245-22.476,17.168-27.727,17.168c-4.3,0-7.408-2.289-12.982-6.676c-9.307-7.325-22.054-17.358-47.785-12.87 c-22.972,4.005-40.672,28.424-52.659,51.947C52.142,392.714,19.692,328.081,19.692,256z"></path><path d="M158.297,141.606c0.246,0.601,0.551,1.172,0.906,1.703c0.354,0.542,0.768,1.044,1.221,1.497 c0.453,0.454,0.955,0.867,1.497,1.221c0.532,0.354,1.103,0.66,1.703,0.906c0.591,0.246,1.211,0.443,1.841,0.561 c0.63,0.128,1.28,0.197,1.92,0.197s1.29-0.069,1.92-0.197c0.63-0.118,1.25-0.315,1.851-0.561c0.591-0.246,1.162-0.551,1.694-0.906 c0.542-0.353,1.044-0.767,1.497-1.221c0.453-0.453,0.866-0.955,1.221-1.497c0.354-0.532,0.66-1.103,0.906-1.703 c0.246-0.591,0.443-1.21,0.561-1.84c0.128-0.631,0.197-1.281,0.197-1.92c0-0.64-0.069-1.291-0.197-1.92 c-0.118-0.63-0.315-1.25-0.561-1.841c-0.246-0.601-0.551-1.171-0.906-1.702c-0.354-0.543-0.768-1.045-1.221-1.498 s-0.955-0.866-1.497-1.221c-0.532-0.364-1.103-0.66-1.694-0.906c-0.601-0.246-1.221-0.443-1.851-0.571 c-1.27-0.246-2.57-0.246-3.84,0c-0.63,0.128-1.25,0.325-1.841,0.571c-0.601,0.246-1.172,0.542-1.703,0.906 c-0.542,0.354-1.044,0.768-1.497,1.221c-0.453,0.453-0.866,0.955-1.221,1.498c-0.354,0.532-0.66,1.102-0.906,1.702 c-0.246,0.592-0.443,1.211-0.561,1.841c-0.128,0.63-0.197,1.28-0.197,1.92c0,0.639,0.069,1.29,0.197,1.92 C157.854,140.396,158.05,141.017,158.297,141.606z"></path></svg>